<?xml version="1.0" standalone="no"?>
<!DOCTYPE svg PUBLIC "-//W3C//DTD SVG 20010904//EN"
 "http://www.w3.org/TR/2001/REC-SVG-20010904/DTD/svg10.dtd">
<svg version="1.0" xmlns="http://www.w3.org/2000/svg"
 width="512.000000pt" height="256.000000pt" viewBox="0 0 512.000000 256.000000"
 preserveAspectRatio="xMidYMid meet">

<g transform="translate(0.000000,256.000000) scale(0.100000,-0.100000)"
fill="currentColor" stroke="none">
<path d="M2638 2252 c-131 -75 -237 -142 -235 -148 1 -6 153 -272 337 -592
l335 -582 324 0 c301 0 323 1 317 17 -11 29 -831 1443 -836 1442 -3 0 -112
-62 -242 -137z"/>
<path d="M2082 1742 c-133 -75 -242 -141 -242 -145 0 -4 86 -156 190 -337
l190 -329 0 -71 0 -71 68 3 67 3 3 68 3 67 254 0 255 0 0 -114 0 -115 -47 22
c-72 32 -171 30 -245 -6 -103 -51 -162 -144 -162 -257 0 -109 53 -199 153
-258 63 -37 178 -43 246 -13 57 25 55 25 55 6 0 -12 14 -15 70 -15 l70 0 0
375 0 375 -69 0 -68 0 -224 388 c-123 213 -246 426 -274 474 l-51 87 -242
-137z m702 -1145 c56 -31 79 -67 84 -129 3 -44 0 -59 -20 -87 -39 -58 -72 -76
-138 -76 -63 0 -95 16 -134 69 -32 43 -29 132 6 178 52 68 131 86 202 45z"/>
<path d="M1510 1239 c-124 -72 -229 -134 -233 -139 -5 -4 12 -44 38 -89 l47
-81 324 0 324 0 0 -114 0 -115 -47 22 c-34 15 -68 22 -118 22 -266 1 -391
-322 -194 -499 95 -85 206 -99 342 -41 12 5 17 3 17 -9 0 -13 12 -16 70 -16
l70 0 0 375 0 375 -69 0 -68 0 -128 220 c-70 121 -132 220 -138 220 -7 -1
-113 -59 -237 -131z m433 -652 c91 -69 87 -191 -7 -261 -39 -29 -133 -29 -173
0 -89 66 -99 179 -21 251 54 51 142 55 201 10z"/>
<path d="M1135 741 c-93 -24 -182 -105 -211 -193 -21 -64 -15 -158 14 -214 34
-66 69 -101 134 -133 76 -38 159 -42 240 -11 63 24 58 23 58 5 0 -12 14 -15
65 -15 l65 0 0 280 0 280 -65 0 c-58 0 -65 -2 -65 -19 0 -20 0 -20 -44 0 -50
22 -146 32 -191 20z m122 -132 c43 -16 92 -69 103 -111 28 -104 -61 -206 -170
-196 -160 16 -200 226 -57 297 47 23 82 26 124 10z"/>
<path d="M3275 739 c-88 -22 -174 -101 -203 -188 -17 -49 -15 -140 5 -197 22
-66 101 -145 167 -167 80 -27 155 -22 249 18 12 5 17 3 17 -9 0 -13 12 -16 70
-16 l70 0 0 280 0 280 -70 0 c-63 0 -70 -2 -70 -19 0 -20 -1 -20 -46 0 -54 24
-134 32 -189 18z m163 -146 c45 -34 65 -70 70 -125 4 -58 -17 -102 -69 -141
-90 -66 -234 1 -246 116 -13 127 146 224 245 150z"/>
<path d="M3867 736 c-122 -34 -179 -140 -131 -242 23 -49 70 -72 195 -98 61
-13 115 -29 120 -37 36 -57 -51 -107 -136 -79 -25 8 -41 22 -52 46 -17 34 -17
34 -86 34 l-70 0 6 -36 c8 -48 49 -99 100 -126 57 -30 195 -37 264 -14 141 47
180 207 71 290 -35 25 -65 35 -190 61 -42 9 -82 22 -88 30 -49 59 99 107 155
50 14 -13 25 -31 25 -40 0 -12 14 -15 70 -15 49 0 70 4 70 13 -1 23 -37 92
-61 114 -56 51 -175 74 -262 49z"/>
<path d="M2220 460 l0 -280 70 0 70 0 0 280 0 280 -70 0 -70 0 0 -280z"/>
</g>
</svg>
