<?xml version="1.0" standalone="no"?>
<!DOCTYPE svg PUBLIC "-//W3C//DTD SVG 20010904//EN"
 "http://www.w3.org/TR/2001/REC-SVG-20010904/DTD/svg10.dtd">
<svg version="1.0" xmlns="http://www.w3.org/2000/svg"
 width="4961.000000pt" height="3508.000000pt" viewBox="0 0 4961.000000 3508.000000"
 preserveAspectRatio="xMidYMid meet">

<g transform="translate(0.000000,3508.000000) scale(0.100000,-0.100000)"
fill="currentColor" stroke="none">
<path d="M8335 26614 c-16 -2 -73 -9 -125 -15 -320 -36 -665 -149 -919 -301
-549 -329 -943 -904 -1185 -1728 -111 -380 -172 -688 -276 -1385 -19 -123
-259 -1625 -340 -2120 -16 -99 -52 -322 -80 -495 -28 -173 -64 -396 -80 -495
-16 -99 -48 -295 -70 -435 -23 -140 -56 -349 -75 -465 -19 -115 -149 -923
-290 -1795 -140 -872 -269 -1666 -285 -1765 -16 -99 -52 -322 -80 -495 -28
-173 -59 -369 -70 -435 -112 -679 -111 -677 -117 -860 -11 -343 47 -627 186
-910 265 -539 740 -876 1382 -982 97 -16 433 -18 5042 -20 3970 -3 4938 -1
4942 9 6 17 595 3670 595 3691 0 16 -272 17 -3840 17 -2112 0 -3840 3 -3840 7
0 11 289 1806 295 1831 l5 22 3845 0 c2909 0 3845 3 3845 12 0 6 128 806 285
1778 157 972 285 1770 285 1773 0 4 -1728 7 -3840 7 -3065 0 -3840 3 -3840 13
0 6 66 425 147 929 l148 918 3844 2 3845 3 291 1805 c161 993 295 1824 298
1848 l7 42 -4952 -1 c-2724 -1 -4966 -4 -4983 -5z"/>
<path d="M21400 26604 c-750 -81 -1328 -443 -1730 -1086 -179 -286 -337 -669
-449 -1085 -86 -319 -146 -631 -229 -1190 l-48 -323 5943 0 c4748 0 5943 3
5943 13 0 6 133 834 295 1838 162 1004 295 1831 295 1837 0 19 -9848 15
-10020 -4z"/>
<path d="M32690 26613 c-1 -5 -135 -836 -298 -1848 l-298 -1840 3518 -3 c3387
-2 3518 -3 3518 -20 0 -10 -13 -97 -29 -193 -16 -96 -53 -318 -81 -494 -28
-176 -57 -358 -65 -405 -8 -47 -154 -951 -325 -2010 -171 -1059 -324 -2006
-340 -2105 -16 -99 -50 -308 -75 -465 -25 -157 -61 -379 -80 -495 -19 -115
-55 -338 -80 -495 -24 -157 -47 -298 -50 -315 -3 -16 -111 -685 -241 -1485
-240 -1486 -277 -1719 -359 -2223 -26 -159 -44 -292 -40 -295 4 -4 1091 -8
2416 -10 l2409 -2 5 22 c12 53 2026 12547 2035 12626 38 336 -21 717 -160
1027 -116 257 -338 525 -580 697 -242 172 -569 292 -892 327 -113 13 -9908 16
-9908 4z"/>
<path d="M18656 21043 c-6 -21 -219 -1345 -242 -1508 -22 -151 -14 -418 16
-570 31 -159 83 -312 155 -460 250 -513 708 -863 1290 -987 l110 -23 2883 -3
2882 -2 0 -23 c-1 -12 -16 -114 -34 -227 -18 -113 -84 -521 -147 -907 l-114
-703 -3844 -2 -3845 -3 -272 -1685 c-150 -927 -284 -1757 -298 -1845 -14 -88
-26 -166 -26 -173 0 -10 965 -12 4943 -9 4599 2 4949 4 5045 20 694 114 1262
444 1707 992 251 308 447 720 520 1093 14 70 203 1230 421 2577 429 2656 420
2594 395 2830 -34 312 -151 623 -329 875 -86 122 -300 336 -422 422 -179 127
-425 238 -639 289 -212 51 64 49 -5223 49 -4683 0 -4927 -1 -4932 -17z"/>
<path d="M31797 21023 c-5 -34 -154 -963 -227 -1408 -16 -99 -50 -308 -75
-465 -25 -157 -61 -379 -80 -495 -19 -115 -53 -325 -75 -465 -23 -140 -56
-351 -76 -467 -47 -293 -499 -3093 -529 -3278 -30 -190 -168 -1042 -200 -1240
-113 -693 -205 -1268 -205 -1281 0 -12 348 -14 2359 -14 1573 0 2362 3 2366
10 7 11 1475 9092 1475 9123 0 16 -119 17 -2364 17 l-2363 0 -6 -37z"/>
<path d="M44180 13940 c-164 -23 -364 -105 -493 -201 -149 -112 -290 -292
-356 -456 -116 -285 -104 -616 32 -888 110 -222 336 -429 560 -515 142 -55
237 -73 392 -74 148 -1 208 8 340 51 348 112 615 395 706 753 122 475 -99 977
-532 1209 -86 47 -191 85 -294 107 -87 19 -268 26 -355 14z m339 -256 c96 -23
255 -104 337 -173 86 -72 162 -169 214 -276 66 -136 75 -179 75 -360 0 -181
-9 -224 -75 -360 -84 -173 -212 -300 -385 -385 -158 -76 -301 -102 -461 -81
-436 58 -755 436 -731 866 13 227 99 410 266 567 120 114 282 193 446 218 77
11 230 4 314 -16z"/>
<path d="M43920 12895 l0 -545 135 0 135 0 0 150 0 150 59 0 58 0 89 -146 c49
-81 93 -148 99 -150 6 -3 74 -3 151 -2 l141 3 -99 150 c-54 83 -103 157 -108
167 -8 13 -2 20 35 38 62 30 133 104 164 170 23 49 26 67 26 170 0 96 -4 124
-23 171 -46 114 -143 187 -279 209 -32 6 -176 10 -320 10 l-263 0 0 -545z
m533 291 c52 -21 71 -60 71 -141 0 -80 -18 -121 -68 -151 -24 -15 -56 -19
-148 -22 l-118 -4 0 166 0 166 115 0 c75 0 127 -5 148 -14z"/>
<path d="M16137 9984 c-118 -21 -218 -67 -287 -131 -81 -74 -112 -141 -118
-247 -5 -94 6 -144 46 -206 74 -116 227 -165 587 -190 322 -22 439 -61 503
-170 23 -38 27 -56 26 -120 0 -87 -20 -133 -81 -192 -89 -86 -271 -135 -463
-125 -214 12 -388 82 -557 224 l-52 44 -43 -47 c-24 -25 -44 -50 -46 -54 -7
-20 154 -138 263 -192 163 -82 317 -113 527 -105 164 6 237 22 355 78 104 50
173 115 216 206 30 64 32 75 32 178 0 136 -20 188 -101 265 -93 88 -229 132
-464 150 -446 35 -499 48 -568 138 -23 30 -27 45 -27 101 1 104 46 172 150
224 81 39 149 52 280 51 189 -1 368 -55 487 -147 l46 -36 47 50 c56 60 55 63
-59 128 -206 117 -475 166 -699 125z"/>
<path d="M19765 9986 c-179 -36 -299 -99 -426 -226 -84 -83 -102 -108 -142
-190 -60 -126 -79 -209 -79 -340 1 -83 6 -124 27 -195 42 -142 86 -216 195
-325 110 -110 185 -157 320 -202 82 -27 113 -31 230 -35 120 -4 146 -2 232 20
236 61 423 208 521 410 59 120 80 206 80 332 0 347 -228 634 -585 735 -95 27
-276 35 -373 16z m310 -141 c33 -8 98 -34 145 -57 153 -74 282 -231 325 -394
19 -74 19 -241 0 -314 -58 -220 -246 -403 -467 -455 -83 -19 -247 -19 -323 0
-224 58 -408 244 -459 465 -34 141 -11 315 56 443 49 92 174 213 268 260 41
20 102 43 135 51 81 19 246 20 320 1z"/>
<path d="M24872 9989 c-206 -36 -351 -133 -404 -268 -31 -80 -31 -207 0 -276
62 -136 207 -202 497 -225 366 -30 426 -40 515 -85 56 -28 103 -80 120 -130 7
-20 10 -67 8 -105 -3 -53 -10 -77 -34 -116 -77 -125 -278 -195 -519 -180 -193
11 -347 70 -512 196 l-92 69 -45 -52 -45 -52 37 -33 c69 -61 208 -148 286
-181 157 -65 211 -75 426 -75 185 0 200 2 285 28 111 34 174 67 242 129 191
175 167 505 -46 620 -116 64 -239 89 -513 107 -249 16 -324 31 -399 78 -57 36
-79 81 -79 159 0 115 78 200 225 246 97 30 302 29 420 -2 95 -25 209 -78 275
-126 l47 -34 46 53 46 53 -45 32 c-71 52 -225 120 -331 147 -110 28 -318 40
-411 23z"/>
<path d="M37972 9989 c-164 -27 -319 -107 -437 -224 -149 -149 -225 -327 -225
-530 0 -372 271 -683 658 -756 101 -19 290 -7 392 26 268 85 465 286 536 545
25 89 25 281 1 370 -106 387 -513 637 -925 569z m356 -162 c197 -70 344 -218
405 -412 31 -98 31 -260 -1 -360 -59 -189 -205 -340 -400 -413 -89 -33 -272
-42 -376 -18 -199 47 -379 207 -446 398 -106 301 24 631 302 767 124 61 173
71 318 68 104 -3 137 -8 198 -30z"/>
<path d="M7663 9963 l-23 -4 0 -730 0 -729 605 0 605 0 0 70 0 70 -530 0 -530
0 0 285 0 285 305 0 305 0 0 70 0 70 -305 0 -305 0 0 240 0 240 505 0 505 0 0
70 0 70 -557 -1 c-307 -1 -568 -4 -580 -6z"/>
<path d="M9300 9235 l0 -735 545 0 545 0 0 70 0 70 -470 0 -470 0 0 665 0 665
-75 0 -75 0 0 -735z"/>
<path d="M10780 9235 l0 -735 75 0 75 0 -2 733 -3 732 -72 3 -73 3 0 -736z"/>
<path d="M11353 9963 c-9 -3 -13 -27 -13 -69 l0 -64 280 0 280 0 0 -665 0
-666 78 3 77 3 3 663 2 662 281 0 280 0 -3 68 -3 67 -625 2 c-344 1 -631 -1
-637 -4z"/>
<path d="M13030 9235 l0 -735 608 2 607 3 3 68 3 67 -536 0 -535 0 0 285 0
285 310 0 311 0 -3 68 -3 67 -307 3 -308 2 0 240 0 240 510 0 511 0 -3 68 -3
67 -582 3 -583 2 0 -735z"/>
<path d="M17562 9963 l-42 -4 2 -727 3 -727 78 -3 77 -3 0 310 0 309 373 5
c392 4 433 9 527 57 199 102 285 344 190 536 -54 111 -150 188 -279 227 -61
19 -99 20 -476 22 -225 1 -429 0 -453 -2z m838 -144 c125 -20 214 -94 246
-206 19 -66 11 -130 -24 -196 -31 -58 -69 -92 -142 -126 l-55 -26 -372 -3
-373 -3 0 285 0 286 328 0 c180 0 356 -5 392 -11z"/>
<path d="M21253 9963 l-33 -4 0 -730 0 -729 75 0 75 0 0 310 0 310 328 0 327
-1 172 -307 171 -307 86 -3 c47 -1 86 0 86 3 0 3 -79 143 -175 310 -96 166
-176 308 -177 314 -2 7 24 21 57 32 214 74 325 272 269 484 -38 150 -144 253
-310 301 -51 15 -115 17 -489 19 -236 2 -445 1 -462 -2z m937 -161 c120 -48
180 -133 180 -256 -1 -117 -51 -199 -155 -254 l-50 -27 -397 -3 -398 -3 0 286
0 286 383 -3 c366 -3 384 -5 437 -26z"/>
<path d="M22858 9963 c-27 -4 -28 -6 -28 -69 l0 -64 280 0 280 0 2 -662 3
-663 78 -3 77 -3 0 666 0 665 280 0 280 0 0 70 0 70 -612 -1 c-337 -1 -625 -4
-640 -6z"/>
<path d="M27360 9235 l0 -735 75 0 75 0 2 599 3 599 495 -599 494 -600 71 3
70 3 0 730 0 730 -75 0 -75 0 -5 -597 -5 -596 -494 599 -494 599 -69 0 -68 0
0 -735z"/>
<path d="M29263 9963 l-23 -4 0 -507 c0 -558 2 -583 61 -693 63 -117 176 -206
326 -255 82 -27 99 -29 248 -29 140 0 169 3 235 23 212 67 343 198 391 392 11
43 14 167 14 565 l0 510 -35 3 c-19 2 -54 1 -77 -3 l-42 -6 -3 -522 -3 -522
-32 -67 c-17 -37 -51 -87 -76 -111 -50 -50 -146 -99 -225 -116 -68 -14 -226
-14 -294 0 -136 28 -262 129 -310 246 -23 58 -23 60 -26 581 l-3 522 -52 -1
c-29 -1 -62 -4 -74 -6z"/>
<path d="M30897 9963 c-4 -3 -7 -35 -7 -70 l0 -63 285 0 285 0 0 -665 0 -665
75 0 75 0 0 665 0 665 280 0 280 0 0 70 0 70 -633 0 c-349 0 -637 -3 -640 -7z"/>
<path d="M32613 9963 l-33 -4 0 -730 0 -730 78 3 77 3 3 308 2 307 327 -2 326
-3 167 -298 c93 -165 172 -303 177 -308 6 -6 47 -9 92 -7 l81 3 -180 314 c-99
172 -178 317 -175 321 3 5 20 12 38 15 95 21 219 120 261 209 37 78 50 163 38
236 -31 173 -144 294 -323 347 -45 14 -125 16 -489 18 -239 2 -450 1 -467 -2z
m871 -143 c113 -18 190 -74 234 -169 21 -46 24 -64 20 -127 -6 -88 -38 -149
-106 -201 -79 -60 -105 -63 -519 -63 l-373 0 0 285 0 285 343 0 c188 0 368 -4
401 -10z"/>
<path d="M34415 9958 c-3 -7 -4 -337 -3 -733 l3 -720 75 0 75 0 0 730 0 730
-73 3 c-52 2 -74 -1 -77 -10z"/>
<path d="M35013 9963 l-33 -4 0 -65 0 -64 280 0 280 0 0 -665 0 -665 75 0 75
0 0 665 0 665 285 0 286 0 -3 68 -3 67 -605 1 c-333 0 -620 -1 -637 -3z"/>
<path d="M36670 9235 l0 -735 75 0 75 0 -2 733 -3 732 -72 3 -73 3 0 -736z"/>
<path d="M39410 9235 l0 -735 75 0 75 0 2 601 3 602 495 -601 495 -601 73 -1
72 0 -2 733 -3 732 -75 0 -75 0 -5 -594 -5 -595 -490 595 -491 594 -72 3 -72
3 0 -736z"/>
</g>
</svg>
