<?xml version="1.0" standalone="no"?>
<!DOCTYPE svg PUBLIC "-//W3C//DTD SVG 20010904//EN"
 "http://www.w3.org/TR/2001/REC-SVG-20010904/DTD/svg10.dtd">
<svg version="1.0" xmlns="http://www.w3.org/2000/svg"
 width="2400.000000pt" height="1689.000000pt" viewBox="0 0 2400.000000 1689.000000"
 preserveAspectRatio="xMidYMid meet">

<g transform="translate(0.000000,1689.000000) scale(0.100000,-0.100000)"
fill="currentColor" stroke="none">
<path d="M9741 14468 l-1872 -2423 1111 -3 c612 -1 1110 -6 1108 -10 -2 -5
-79 -113 -173 -240 l-170 -231 -2170 -1 c-1332 0 -2232 -4 -2330 -10 -713 -45
-1259 -233 -1705 -588 -116 -92 -289 -266 -390 -391 -41 -51 -766 -1045 -1611
-2209 l-1536 -2117 2914 -3 c1602 -1 2913 -4 2913 -7 0 -2 -1026 -1401 -2279
-3107 -1253 -1707 -2277 -3105 -2276 -3106 2 -2 1881 1396 4176 3107 l4173
3111 4416 0 c2888 0 4482 4 4610 10 778 41 1306 188 1723 480 114 80 327 291
427 424 41 54 777 1067 1636 2250 l1561 2151 -3614 5 -3615 5 1758 1310 1757
1310 -1137 5 -1137 5 1591 1344 c874 739 1590 1345 1590 1347 0 2 -2155 4
-4789 4 l-4788 0 -1872 -2422z m10223 2044 c-11 -9 -746 -600 -1632 -1312
-886 -712 -1611 -1299 -1612 -1304 0 -6 462 -7 1155 -3 635 3 1155 3 1154 -1
0 -4 -703 -530 -1562 -1169 l-1561 -1163 -2803 0 c-2241 0 -2803 3 -2797 13 5
6 168 221 363 477 453 595 518 681 489 650 -13 -14 -33 -38 -44 -53 l-22 -27
-1185 2 -1185 3 312 401 c171 221 851 1099 1511 1952 l1200 1551 4120 0 c3895
0 4119 -1 4099 -17z m3326 -5318 c0 -4 -33 -52 -74 -108 -180 -248 -834 -1150
-1691 -2331 -510 -704 -962 -1325 -1004 -1380 -371 -487 -887 -704 -1816 -765
-166 -10 -17995 -15 -17995 -5 0 3 446 621 992 1373 546 752 1136 1565 1311
1807 388 535 437 597 591 750 250 249 516 408 881 524 195 63 503 118 740 134
94 6 18065 7 18065 1z m-14536 -4963 c-22 -22 -5509 -4109 -5512 -4106 -2 2
412 558 920 1237 508 678 1200 1603 1538 2055 l615 823 1224 0 c755 0 1221 -4
1215 -9z"/>
<path d="M11189 12743 c-13 -16 -12 -17 4 -4 16 13 21 21 13 21 -2 0 -10 -8
-17 -17z"/>
<path d="M18800 10578 c-33 -46 -176 -243 -318 -438 l-257 -355 -375 -6 c-280
-5 -399 -11 -470 -23 -325 -56 -585 -190 -742 -383 -116 -142 -1052 -1441
-1083 -1504 -53 -103 -68 -169 -63 -268 3 -67 10 -97 30 -136 37 -71 102 -132
183 -171 146 -70 125 -68 800 -71 l610 -3 426 587 c692 955 2020 2785 2047
2821 l24 32 -376 0 -376 0 -60 -82z m-892 -1222 c-2 -7 -284 -401 -628 -875
l-625 -862 -197 3 c-191 3 -197 4 -222 27 -35 33 -42 74 -19 114 11 18 248
347 527 732 319 441 528 721 566 756 96 93 182 114 473 118 104 1 128 -2 125
-13z"/>
<path d="M5400 10643 c-379 -36 -606 -102 -803 -234 -77 -52 -213 -188 -293
-294 -321 -424 -1627 -2206 -1656 -2260 -71 -133 -87 -301 -39 -410 30 -68
101 -138 173 -170 118 -53 159 -55 942 -53 l719 3 564 785 c310 432 582 811
604 843 l40 57 -540 0 -540 0 -140 -185 c-78 -101 -141 -186 -141 -189 0 -3
65 -7 144 -8 l145 -3 -298 -410 -297 -410 -278 -3 c-197 -2 -283 1 -292 9 -22
18 -16 71 13 113 65 97 1608 2175 1636 2204 43 45 173 107 276 133 118 30 252
24 334 -14 41 -18 56 -30 51 -39 -4 -7 -113 -158 -241 -335 -128 -178 -233
-325 -233 -328 0 -3 177 -5 393 -5 l392 0 220 307 c241 336 264 372 294 461
80 236 -75 374 -477 427 -103 14 -559 19 -672 8z"/>
<path d="M9658 10633 c-8 -10 -161 -218 -340 -463 -178 -245 -629 -863 -1002
-1373 -372 -510 -692 -956 -711 -990 -45 -81 -69 -177 -62 -244 21 -205 243
-315 683 -338 l129 -7 168 225 c92 124 167 228 167 230 0 2 -68 6 -151 9 -130
4 -154 8 -177 25 -33 25 -38 52 -17 93 9 17 270 381 581 810 l566 780 177 0
176 1 143 187 144 187 -177 3 c-146 2 -176 5 -172 16 3 8 143 204 311 435 168
232 306 423 306 426 0 3 -164 5 -363 5 -334 0 -365 -1 -379 -17z"/>
<path d="M21563 10359 c-92 -45 -145 -152 -124 -250 36 -166 218 -240 358
-146 149 101 124 333 -44 404 -49 20 -141 17 -190 -8z m183 -28 c65 -30 114
-109 114 -186 0 -17 -11 -53 -25 -81 -72 -144 -268 -145 -339 -2 -14 28 -26
66 -26 82 0 150 144 247 276 187z"/>
<path d="M21580 10156 c0 -112 3 -136 15 -136 10 0 15 15 17 58 3 50 6 57 25
60 19 3 30 -8 60 -57 23 -37 45 -61 56 -61 23 0 22 3 -18 62 l-35 52 29 12
c44 18 56 74 24 113 -14 17 -34 22 -95 28 l-78 6 0 -137z m141 88 c13 -8 11
-48 -3 -62 -7 -7 -34 -12 -60 -12 l-48 0 0 38 c0 21 3 42 8 46 7 8 86 1 103
-10z"/>
<path d="M20278 9869 c-517 -35 -918 -196 -1151 -462 -61 -70 -1073 -1462
-1124 -1546 -52 -86 -75 -158 -81 -247 -5 -92 6 -137 50 -201 102 -151 394
-216 814 -184 482 37 861 173 1055 378 46 49 359 491 359 508 0 3 -163 5 -363
5 l-362 0 -57 -78 c-136 -188 -228 -272 -345 -313 -84 -30 -233 -32 -288 -3
-54 28 -65 67 -36 126 12 24 108 162 214 308 l193 265 649 5 648 5 324 445
c178 245 337 474 354 509 123 252 -58 435 -473 480 -108 12 -204 12 -380 0z
m44 -439 c46 -13 64 -41 47 -72 -14 -25 -365 -517 -383 -536 -9 -9 -74 -12
-279 -10 l-267 3 155 215 c85 118 177 238 205 266 59 61 148 111 233 129 75
16 238 19 289 5z"/>
<path d="M14290 9821 c-289 -68 -573 -178 -773 -298 -32 -19 -60 -34 -62 -32
-1 2 48 74 111 159 62 85 113 158 114 163 0 4 -170 7 -377 7 l-378 0 -917
-1258 c-504 -691 -931 -1276 -948 -1300 l-32 -42 383 2 382 3 611 836 c653
894 617 851 761 922 168 83 349 121 552 116 l129 -4 40 55 c22 30 147 198 277
373 156 209 231 317 219 316 -9 0 -51 -9 -92 -18z"/>
<path d="M11260 9823 c-204 -16 -440 -67 -607 -132 -128 -50 -188 -80 -290
-147 -169 -110 -198 -145 -796 -968 -303 -419 -564 -783 -578 -811 -91 -168
-74 -345 42 -449 121 -110 351 -151 699 -127 538 38 926 175 1159 410 88 88
1211 1637 1254 1729 26 56 31 79 32 142 0 65 -4 82 -30 129 -50 90 -147 152
-297 190 -139 36 -386 50 -588 34z m100 -436 c34 -17 37 -58 8 -110 -26 -46
-931 -1295 -1007 -1390 -138 -172 -333 -263 -511 -238 -126 17 -156 66 -93
155 179 252 973 1339 997 1364 94 101 259 193 401 225 44 10 181 6 205 -6z"/>
<path d="M7470 9784 c-564 -47 -848 -149 -1086 -389 -68 -68 -234 -295 -234
-318 0 -4 148 -7 329 -7 l329 0 32 50 c44 69 143 158 213 191 79 37 179 52
304 47 84 -4 109 -9 131 -25 15 -11 28 -26 29 -34 2 -8 -56 -95 -127 -194
-154 -212 -119 -191 -445 -270 -649 -158 -1019 -306 -1305 -521 -210 -158
-361 -366 -415 -574 -65 -247 38 -407 316 -492 73 -22 85 -22 649 -25 l575 -3
730 1002 c402 550 742 1022 757 1048 37 63 61 161 53 213 -9 56 -51 132 -94
169 -48 42 -162 95 -246 114 -68 15 -386 27 -495 18z m-572 -1353 c-1 -4 -129
-182 -283 -395 l-280 -387 -131 3 c-123 3 -133 5 -172 30 -89 60 -101 136 -39
253 133 251 387 403 824 490 86 17 85 17 81 6z"/>
<path d="M15330 9780 c-309 -24 -554 -85 -750 -186 -171 -88 -311 -218 -431
-401 -38 -58 -69 -109 -69 -114 0 -5 139 -9 328 -9 l327 0 27 43 c41 64 134
152 198 186 86 46 176 63 305 59 129 -4 170 -19 170 -60 0 -19 -39 -82 -125
-202 -147 -205 -91 -174 -495 -275 -433 -109 -658 -184 -905 -303 -257 -123
-475 -289 -600 -458 -63 -85 -144 -254 -166 -345 -43 -186 29 -337 201 -420
148 -70 145 -70 779 -70 l569 0 734 1005 c403 553 748 1034 766 1069 40 81 49
178 22 247 -36 95 -165 182 -325 219 -89 21 -379 28 -560 15z m-500 -1343 c0
-1 -127 -178 -283 -392 l-283 -390 -107 -3 c-122 -3 -173 7 -217 44 -75 64
-78 139 -8 262 46 81 155 199 229 249 125 86 319 161 531 207 112 24 138 28
138 23z"/>
<path d="M10170 5518 c-157 -209 -286 -385 -288 -389 -2 -5 39 -9 91 -9 l94 0
161 214 c121 161 170 217 197 230 43 21 99 18 103 -5 2 -9 -67 -111 -153 -225
l-156 -209 87 -3 c48 -2 93 -1 100 2 7 3 90 107 184 232 183 244 194 268 145
300 -50 33 -201 15 -275 -33 -18 -12 -22 -13 -14 -2 6 8 51 68 99 134 48 66
92 126 98 133 7 9 -12 12 -89 12 l-99 -1 -285 -381z"/>
<path d="M11125 5840 l-46 -60 99 0 99 0 34 47 c57 78 61 73 -45 73 l-95 0
-46 -60z"/>
<path d="M17317 5517 c-158 -211 -287 -387 -287 -390 0 -4 42 -7 94 -7 l94 0
157 210 c93 124 171 218 191 230 40 26 107 24 112 -1 2 -9 -64 -106 -145 -215
-82 -110 -152 -205 -157 -211 -5 -10 15 -13 88 -13 l96 0 175 233 c187 249
198 272 150 303 -39 25 -150 21 -225 -9 -33 -14 -60 -23 -60 -20 0 2 41 58 90
123 50 66 93 127 96 135 5 13 -8 15 -88 15 l-93 0 -288 -383z"/>
<path d="M9975 5779 c-92 -26 -103 -32 -139 -74 -33 -38 -43 -45 -75 -45 -33
0 -42 -5 -70 -45 l-32 -45 35 0 c20 0 36 -2 36 -5 0 -3 -58 -83 -129 -178 -71
-94 -132 -181 -135 -193 -4 -14 0 -30 13 -45 18 -22 26 -24 117 -24 l98 0 34
45 35 45 -38 3 c-30 3 -36 7 -32 21 2 10 57 88 122 174 l117 157 52 0 c50 0
53 2 84 45 l32 45 -45 0 c-25 0 -45 3 -45 7 0 3 11 21 25 40 14 18 37 49 51
68 33 44 28 44 -111 4z"/>
<path d="M12850 5790 c-36 -10 -83 -23 -106 -29 -31 -8 -48 -22 -73 -56 -29
-41 -36 -45 -74 -45 -37 0 -45 -5 -69 -39 -16 -22 -28 -42 -28 -45 0 -3 16 -6
35 -6 l35 0 -135 -180 c-153 -204 -162 -230 -100 -256 20 -8 67 -14 113 -14
l79 0 31 44 c18 24 32 47 32 50 0 3 -16 6 -35 6 -20 0 -35 5 -35 12 0 6 55 85
123 175 l122 163 52 0 c49 0 53 2 83 43 l31 42 -46 3 c-25 2 -45 5 -45 8 0 2
23 33 50 68 28 35 50 66 50 70 0 9 -19 6 -90 -14z"/>
<path d="M11707 5669 c-33 -5 -83 -22 -113 -38 -51 -28 -72 -28 -39 -1 29 24
14 30 -75 30 l-90 0 -193 -257 c-106 -142 -196 -264 -201 -270 -5 -10 15 -13
88 -13 l95 0 131 173 c71 94 146 183 165 196 39 26 121 51 170 51 25 1 37 10
71 58 42 58 58 83 52 81 -2 -1 -29 -5 -61 -10z"/>
<path d="M12145 5669 c-154 -15 -257 -64 -322 -152 -46 -63 -26 -101 83 -155
33 -17 66 -38 74 -46 32 -39 -42 -106 -117 -106 -51 0 -59 10 -38 49 8 17 15
32 15 36 0 3 -40 5 -90 5 l-90 0 -30 -42 c-58 -80 -34 -123 80 -140 175 -26
379 44 467 160 57 75 39 115 -75 176 -39 20 -73 44 -76 53 -11 28 44 74 96 80
54 6 65 -5 43 -47 l-16 -30 96 0 95 0 20 33 c26 42 25 69 -3 95 -33 31 -107
42 -212 31z"/>
<path d="M13715 5670 c-113 -16 -220 -99 -351 -273 -162 -214 -164 -282 -10
-281 56 1 85 7 129 27 31 14 57 24 57 21 0 -4 -135 -187 -193 -261 -7 -10 12
-13 89 -13 l99 1 288 384 287 385 -94 0 c-91 0 -94 -1 -111 -27 l-18 -26 -14
26 c-18 35 -75 49 -158 37z m101 -104 c8 -20 -16 -62 -100 -174 -89 -117 -141
-167 -192 -181 -36 -10 -74 -1 -74 17 0 27 120 203 189 276 20 21 50 47 66 57
36 23 103 25 111 5z"/>
<path d="M16205 5670 c-28 -4 -70 -17 -95 -29 -54 -26 -53 -26 -40 -1 10 19 8
20 -85 20 l-95 0 -193 -257 c-106 -142 -196 -264 -201 -270 -5 -10 15 -13 88
-13 l96 0 149 198 c149 199 193 247 236 258 37 9 69 1 73 -19 2 -11 -53 -93
-143 -213 -80 -107 -149 -202 -152 -210 -4 -12 11 -14 89 -14 l93 0 167 223
c91 122 172 235 179 251 12 26 11 30 -14 52 -16 13 -39 24 -52 24 -13 0 -29 2
-37 4 -7 2 -36 0 -63 -4z"/>
<path d="M16898 5669 c-170 -18 -283 -92 -418 -274 -68 -91 -100 -156 -100
-200 0 -29 6 -39 32 -55 75 -46 281 -31 404 30 35 17 88 56 121 88 l58 57 -93
3 -94 3 -45 -41 c-50 -47 -98 -70 -143 -70 -63 0 -45 49 76 210 97 129 162
173 229 156 30 -8 32 -30 5 -73 l-20 -33 99 0 99 0 22 35 c12 20 24 53 27 74
4 32 1 41 -22 59 -39 31 -128 43 -237 31z"/>
<path d="M19307 5669 c-33 -5 -83 -22 -113 -38 -51 -28 -72 -28 -39 -1 29 24
14 30 -75 30 l-90 0 -193 -257 c-106 -142 -196 -264 -201 -270 -5 -10 15 -13
88 -13 l95 0 131 173 c71 94 146 183 165 196 39 26 121 51 170 51 25 1 37 10
71 58 42 58 58 83 52 81 -2 -1 -29 -5 -61 -10z"/>
<path d="M15270 5655 c-116 -33 -198 -90 -290 -202 -206 -250 -200 -337 25
-337 156 0 286 49 383 143 l47 46 -94 3 -94 3 -36 -35 c-48 -45 -95 -68 -134
-64 -44 4 -45 30 -5 98 l33 55 194 5 195 5 47 69 c83 122 87 181 14 212 -43
18 -221 18 -285 -1z m138 -98 c2 -10 -8 -38 -23 -62 l-26 -45 -89 0 c-50 0
-90 3 -90 6 0 18 49 70 89 96 36 23 55 28 91 26 34 -2 46 -7 48 -21z"/>
<path d="M18359 5656 c-73 -21 -166 -75 -224 -133 -106 -104 -215 -270 -215
-328 0 -37 31 -62 96 -75 101 -21 234 1 344 55 64 32 160 108 160 126 0 5 -41
9 -91 9 l-91 0 -50 -45 c-48 -43 -94 -61 -135 -53 -29 5 -26 39 9 98 l33 55
195 5 195 5 48 70 c82 119 85 180 12 211 -43 18 -220 18 -286 0z m139 -103 c2
-12 -9 -40 -24 -62 l-27 -41 -88 0 c-49 0 -89 3 -89 6 0 18 49 70 89 96 37 23
55 28 91 26 38 -3 46 -7 48 -25z"/>
<path d="M10797 5403 c-106 -142 -196 -264 -201 -270 -5 -10 15 -13 88 -13
l96 0 193 258 c106 141 196 263 201 270 5 9 -15 12 -88 12 l-96 0 -193 -257z"/>
<path d="M14200 5438 c-91 -122 -169 -230 -173 -242 -31 -81 109 -109 255 -51
l57 22 -16 -23 -15 -24 101 0 c99 0 101 0 118 28 10 15 98 134 195 264 98 131
178 240 178 243 0 3 -43 5 -95 5 l-95 0 -148 -197 c-82 -109 -161 -209 -175
-222 -18 -16 -42 -25 -75 -29 -56 -5 -69 6 -51 40 9 17 225 310 292 396 7 9
-12 12 -89 12 l-99 -1 -165 -221z"/>
</g>
</svg>
